PathFileType	4	(X/Y/Z)	2014001\dynamic\2014001_C3_02.trc
DataRate	CameraRate	NumFrames	NumMarkers	Units	OrigDataRate	OrigDataStartFrame	OrigNumFrames
100.000000	100.000000	4	52	mm	100.000000	70	187
Frame#	Time	L_IAS			L_IPS			R_IPS			R_IAS			L_FTC			L_FLE			L_FME			L_FAX			L_TTC			L_FAL			L_TAM			L_FCC			L_FM1			L_FM2			L_FM5			R_FTC			R_FLE			R_FME			R_FAX			R_TTC			R_FAL			R_TAM			R_FCC			R_FM1			R_FM2			R_FM5			CV7			TV10			SXS			SJN			L_SIA			L_SRS			L_SAA			L_SAE			L_HLE			L_HME			L_UOA			L_RSP			L_UHE			L_HM2			L_HM5			R_SIA			R_SRS			R_SAA			R_SAE			R_HLE			R_HME			R_UOA			R_RSP			R_UHE			R_HM2			R_HM5			
		X1	Y1	Z1	X2	Y2	Z2	X3	Y3	Z3	X4	Y4	Z4	X5	Y5	Z5	X6	Y6	Z6	X7	Y7	Z7	X8	Y8	Z8	X9	Y9	Z9	X10	Y10	Z10	X11	Y11	Z11	X12	Y12	Z12	X13	Y13	Z13	X14	Y14	Z14	X15	Y15	Z15	X16	Y16	Z16	X17	Y17	Z17	X18	Y18	Z18	X19	Y19	Z19	X20	Y20	Z20	X21	Y21	Z21	X22	Y22	Z22	X23	Y23	Z23	X24	Y24	Z24	X25	Y25	Z25	X26	Y26	Z26	X27	Y27	Z27	X28	Y28	Z28	X29	Y29	Z29	X30	Y30	Z30	X31	Y31	Z31	X32	Y32	Z32	X33	Y33	Z33	X34	Y34	Z34	X35	Y35	Z35	X36	Y36	Z36	X37	Y37	Z37	X38	Y38	Z38	X39	Y39	Z39	X40	Y40	Z40	X41	Y41	Z41	X42	Y42	Z42	X43	Y43	Z43	X44	Y44	Z44	X45	Y45	Z45	X46	Y46	Z46	X47	Y47	Z47	X48	Y48	Z48	X49	Y49	Z49	X50	Y50	Z50	X51	Y51	Z51	X52	Y52	Z52	

71	0.7000000000000001	107.9324417114258	859.748168945313	401.1662597656252	173.7811737060547	890.4198608398442	584.4331665039065	260.8574523925782	888.4877929687505	585.6016235351565	346.7620544433595	852.9519042968755	414.4546508789065	46.00298309326173	771.5918579101567	463.8035583496096	86.09565734863284	440.7062683105471	327.6639404296876	201.4830169677736	439.209655761719	314.6438293457032	82.06773376464847	376.946502685547	330.0605468750001	133.9901733398438	372.1267089843751	266.7363586425782	126.0573272705079	60.27449798583987	295.2678527832032	213.3404693603517	74.71475982666018	275.4583740234376	174.0137939453126	17.97129631042481	335.7396240234376	196.364471435547	36.43407440185548	156.9610748291016	137.3002624511719	44.54724884033205	151.5116424560547	96.18333435058599	24.3850612640381	199.2305145263673	400.8105163574221	769.0422363281255	527.4017333984377	366.9984130859376	436.9288330078127	618.6030273437502	249.9224395751954	414.171813964844	596.9294433593752	368.7551269531251	383.9009094238282	666.791198730469	324.7126464843751	346.034637451172	611.8760986328127	320.6311645507814	123.1321411132813	850.6242675781255	239.2088165283204	123.9979095458985	804.5640258789067	260.0086669921876	111.2110443115235	900.0607299804692	242.7733001708986	27.32962036132814	741.0969238281252	304.6163940429689	31.21737289428712	735.2410888671877	347.4070739746095	25.58860778808595	794.6458129882817	227.4121704101564	1355.73388671875	558.494323730469	226.3106994628907	1121.561889648438	615.4815673828127	206.6703033447267	1131.779418945313	382.0018005371095	210.638641357422	1292.541259765625	430.0359191894534	142.2581176757813	1159.448120117188	631.8137817382815	146.2666168212891	1291.795166015625	610.3794555664065	30.51472854614259	1289.434204101563	555.1137695312502	38.11130142211915	1300.706665039063	512.7290039062502	-28.36319541931154	1020.349426269532	574.902038574219	52.64552307128909	990.0989379882817	591.619812011719	5.113939285278322	992.9428100585942	604.4412231445315	-14.49138641357423	776.7930297851567	516.3299560546877	-72.030387878418	786.6989746093755	575.8660888671877	-26.47170829772951	690.272888183594	507.088317871094	-75.00527191162112	711.7925415039065	597.940856933594	342.0505981445314	1163.594848632813	611.4968872070315	315.6901245117189	1286.571166992188	591.1838989257815	412.2765808105471	1285.741577148438	506.3359680175784	394.039245605469	1292.537841796875	459.2048950195315	485.4054870605471	994.222534179688	447.6673583984377	413.444763183594	966.7328491210942	474.9309692382815	460.0811767578127	958.9804687500005	471.0238342285159	440.2634582519534	850.5648803710942	270.2728271484376	504.0139160156252	819.934936523438	312.3528442382814	453.4942016601565	792.249389648438	199.4739685058595	501.0948486328127	747.9266357421877	278.4256896972657	
72	0.71	105.854362487793	861.5646972656255	388.3932189941409	172.0692596435547	891.4325561523442	571.8067626953127	259.2886047363282	888.8455200195317	572.9334106445315	344.601531982422	853.5192260742192	401.5796203613284	44.03042602539064	773.2498168945317	450.6995239257815	85.64168548583987	441.5109863281252	315.7987670898439	200.8242340087892	440.2499694824221	303.7548828125001	81.47452545166018	377.5572814941407	318.9204711914064	134.2959136962891	371.7014160156251	256.6148986816407	126.1289520263672	60.32533645629886	293.0853881835939	213.6849670410157	74.001823425293	273.9544067382814	173.4528503417969	18.80292320251466	335.2178039550782	198.1805114746095	32.01673126220705	155.8909149169922	138.8120422363282	40.99932098388673	149.1852722167969	96.21266174316412	22.88867950439454	198.0338287353517	398.5715332031252	768.9831542968755	514.330749511719	367.5355224609376	436.8861083984377	603.9020996093752	250.5650634765626	412.6493225097659	580.975769042969	369.5915527343751	385.186218261719	653.1317138671877	326.378143310547	345.2774963378907	598.5022583007815	322.2017517089845	129.3548431396485	843.6227416992192	241.2696838378907	127.9811630249024	796.9603881835942	261.1234741210939	120.1531524658204	892.8175659179692	242.3938903808595	28.01424980163576	740.7696533203127	304.1610107421876	30.96328163146974	735.1777343750002	347.0543212890626	27.33419990539552	793.079711914063	225.7079925537111	1356.464477539063	547.6982421875002	224.4764862060548	1121.927490234375	603.628845214844	204.8436431884767	1133.291625976563	370.2412414550782	209.0274353027345	1293.8388671875	418.9637756347659	140.1159057617188	1159.929077148438	619.955017089844	144.2151184082032	1292.23876953125	599.0598754882815	28.50866127014162	1290.4482421875	543.482116699219	36.40110015869142	1301.846069335938	501.1301879882815	-30.41842269897462	1020.758361816407	559.8570556640627	50.64117813110354	990.578979492188	577.5343017578127	2.825043439865113	993.358520507813	589.6633911132815	-15.24103355407716	777.3357543945317	501.1063232421877	-73.67787933349612	787.203735351563	559.4932250976565	-26.93908882141115	690.7537841796877	491.5844726562502	-76.99771118164065	712.357360839844	581.5621337890627	340.0543518066407	1164.007568359375	600.239685058594	313.8600463867189	1287.101928710938	580.2983398437502	410.5171813964846	1286.366455078125	495.7049560546877	392.5797424316409	1293.337646484375	448.4880676269534	482.1611633300784	994.1872558593755	440.0690917968752	409.9023742675784	967.4946899414067	467.1821899414065	456.2996520996096	959.348754882813	463.6821899414065	437.8803710937502	847.2189941406255	265.2397460937501	501.4350585937502	817.3640136718755	308.185028076172	451.1941223144534	787.4050903320317	195.7064361572267	498.4968566894534	744.6543579101565	275.632293701172	
73	0.72	103.7144622802735	863.381958007813	375.7742614746095	170.2324218750001	892.5736694335942	559.284362792969	257.611297607422	889.3837280273442	560.474060058594	342.3889160156251	854.312133789063	388.8818054199221	42.03780364990236	774.8717651367192	437.8057250976565	85.219352722168	442.0981750488284	304.7427368164064	200.2715911865236	441.0560607910159	293.6574707031251	80.94795989990237	377.9994201660157	308.6712036132814	134.5628814697266	371.1744079589845	247.3324279785157	126.2585678100587	60.54293441772464	291.1687011718751	214.0381164550782	73.56129455566409	272.6694946289064	172.9720611572266	19.60613822937012	334.6120605468751	199.8022918701173	28.57189941406251	155.0446472167969	140.1260681152344	38.44076156616212	147.1878662109376	96.15618133544928	22.11896133422852	197.0341796875001	396.2232666015627	769.0248413085942	501.3398437500002	368.2269897460939	436.6462402343752	588.1758422851565	251.447479248047	410.8577270507815	563.882263183594	370.6344299316407	386.3738098144534	638.313659667969	328.2308654785157	344.4054260253907	584.0261230468752	323.7164306640626	135.9342651367188	835.4538574218755	243.3181762695314	132.2098541259766	788.2587890625005	262.2325134277345	129.6383209228516	884.341186523438	241.9811096191407	29.08760833740236	740.0435791015627	303.6618652343751	30.99587059020998	734.7563476562502	346.6652221679689	29.7228126525879	790.9473266601567	224.060760498047	1357.369995117188	536.937927246094	222.5590362548829	1122.487060546875	591.8387451171877	203.0754394531251	1135.023315429688	358.4902648925782	207.488739013672	1295.3583984375	407.9121704101565	137.9516143798829	1160.61669921875	608.085632324219	142.198959350586	1292.881591796875	587.758972167969	26.56939697265626	1291.72607421875	531.8688964843752	34.7469940185547	1303.268310546875	489.5367126464846	-32.39216232299806	1021.456359863282	544.7408447265627	48.65227508544925	991.3145141601567	563.3232421875002	0.5894804596900942	994.0053710937505	574.798034667969	-15.89575290679932	778.227172851563	485.5923767089846	-75.2443542480469	787.9909057617192	542.7219848632815	-27.26306533813478	691.5651855468752	475.6680297851565	-78.88877868652347	713.1724243164065	564.698181152344	338.0916137695314	1164.587036132813	588.974060058594	312.067596435547	1287.77734375	569.441101074219	408.7992248535159	1287.184936523438	485.1228332519534	391.165466308594	1294.340087890625	437.8489379882815	478.8508605957034	994.367309570313	432.5833740234377	406.2517395019534	968.5290527343755	459.4914245605471	452.3928833007815	959.9739379882817	456.4472656250002	435.5511169433596	843.8135375976567	260.6212158203126	498.8883972167971	814.865600585938	304.5110168457032	448.9278564453127	782.3030395507817	192.555389404297	495.9639587402346	741.413513183594	273.5309448242189	
74	0.73	101.5630264282227	865.1423950195317	363.3357238769532	168.276596069336	893.8251953125005	546.907897949219	255.8197784423829	890.0983886718755	548.2764282226565	340.175506591797	855.3032836914067	376.4401855468751	40.05445480346681	776.4262084960942	425.1523742675784	84.81528472900393	442.4545898437502	294.549285888672	199.8197326660157	441.6065979003909	284.4065856933595	80.48117828369143	378.2601623535157	299.3733520507814	134.7782897949219	370.5223999023439	238.9358367919923	126.4522552490235	60.85913848876956	289.5431518554689	214.4053192138673	73.3260192871094	271.6063537597657	172.5938262939454	20.32733535766602	333.9728088378907	201.2153625488282	26.02106094360353	154.4008178710938	141.2407531738282	36.7581253051758	145.5272369384766	96.06261444091803	21.93369674682618	196.227996826172	393.7940368652346	769.1533203125005	488.5130004882815	369.0545043945314	436.2004089355471	571.4426879882815	252.5418395996095	408.8390808105471	545.7129516601565	371.8617553710939	387.4285888671877	622.323181152344	330.201629638672	343.431854248047	568.449401855469	325.1278686523439	142.8335113525391	826.069213867188	245.2867889404298	136.6806030273438	778.4421386718755	263.2946166992189	139.5686950683594	874.5916137695317	241.6334838867189	30.61331367492677	738.6973266601565	303.2033996582032	31.42632293701173	733.7587890625002	346.2857666015626	32.86460876464845	788.0781860351567	222.4666442871095	1358.426391601563	526.2136840820315	220.5374145507814	1123.224243164063	580.1353759765627	201.3854217529298	1136.921630859375	346.7804260253907	206.0333862304689	1297.052856445313	396.8904113769534	135.746322631836	1161.491943359375	596.2229003906252	140.2114715576172	1293.7080078125	576.4780883789065	24.69294738769533	1293.236572265625	520.265808105469	33.14711761474611	1304.934936523438	477.946228027344	-34.290828704834	1022.413696289063	529.5926513671877	46.67345428466798	992.2761840820317	549.0303344726565	-1.60049867630005	994.848510742188	559.8837890625002	-16.4577980041504	779.448364257813	469.7888793945315	-76.72013092041018	789.027221679688	525.5701293945315	-27.44996833801271	692.698913574219	459.3191833496096	-80.66384887695315	714.200866699219	547.344177246094	336.1348876953126	1165.307006835938	577.7463378906252	310.3010864257814	1288.5771484375	558.631530761719	407.1268310546877	1288.155029296875	474.6173400878909	389.7984008789065	1295.493774414063	427.3140258789065	475.509460449219	994.7283325195317	425.1870422363284	402.5396423339846	969.791381835938	451.8403625488284	448.4140625000002	960.828735351563	449.2980041503909	433.2959594726565	840.3732910156255	256.3803100585939	496.392761230469	812.4555053710942	301.2839965820314	446.7058410644534	776.9884643554692	189.9952850341797	493.5044555664065	738.2379150390627	272.0712280273439	
